<?xml version="1.0" standalone="no"?>
<!DOCTYPE svg PUBLIC "-//W3C//DTD SVG 20010904//EN"
 "http://www.w3.org/TR/2001/REC-SVG-20010904/DTD/svg10.dtd">
<svg version="1.0" xmlns="http://www.w3.org/2000/svg"
 width="128.000000pt" height="128.000000pt" viewBox="0 0 128.000000 128.000000"
 preserveAspectRatio="xMidYMid meet">
<metadata>
Created by potrace 1.11, written by Peter Selinger 2001-2013
</metadata>
<g transform="translate(0.000000,128.000000) scale(0.100000,-0.100000)"
fill="#000000" stroke="none">
<path d="M113 1108 c-12 -6 -24 -20 -27 -32 -3 -11 -6 -209 -6 -439 0 -416 2
-448 34 -469 6 -4 241 -8 522 -8 502 0 512 0 538 21 l26 20 0 427 c0 235 -3
437 -6 448 -3 12 -17 27 -30 33 -33 15 -1019 14 -1051 -1z m995 -80 c9 -9 12
-98 12 -342 -1 -276 -3 -328 -14 -314 -12 17 -84 95 -198 216 -28 28 -57 52
-67 52 -9 0 -36 -16 -60 -35 -51 -41 -58 -39 -128 37 -98 106 -112 118 -133
118 -26 0 -46 -21 -185 -189 -60 -73 -125 -150 -142 -170 l-33 -36 0 332 c0
256 3 332 13 336 6 3 217 6 467 6 342 1 459 -2 468 -11z"/>
<path d="M880 952 c-50 -22 -80 -65 -80 -114 0 -58 61 -118 120 -118 60 0 120
60 120 120 0 78 -92 142 -160 112z"/>
</g>
</svg>
